<?xml version="1.0" encoding="utf-8"?>
<!-- Generator: Adobe Illustrator 23.0.3, SVG Export Plug-In . SVG Version: 6.00 Build 0)  -->
<svg version="1.1" id="Layer_1" xmlns="http://www.w3.org/2000/svg" xmlns:xlink="http://www.w3.org/1999/xlink" x="0px" y="0px"
	 viewBox="0 0 596 936" style="enable-background:new 0 0 596 936;" xml:space="preserve">
<g>
	<g>
		<path d="M525.2,19.1c23.8,0,43.2,19.4,43.2,43.2v811.4c0,23.8-19.4,43.2-43.2,43.2H73.6c-23.8,0-43.2-19.4-43.2-43.2V62.3
			c0-23.8,19.4-43.2,43.2-43.2H525.2 M525.2,0H73.6C39.2,0,11.4,27.9,11.4,62.3v811.4c0,34.4,27.9,62.3,62.3,62.3h451.6
			c34.4,0,62.3-27.9,62.3-62.3V62.3C587.5,27.9,559.6,0,525.2,0L525.2,0z"/>
	</g>
	<g>
		<path d="M586,145.3h-2.8c-5.5,0-10,4.5-10,10v98c0,5.5,4.5,10,10,10h2.8c5.5,0,10-4.5,10-10v-98C596,149.7,591.5,145.3,586,145.3
			L586,145.3z"/>
	</g>
	<g>
		<path d="M14.7,145.3H8c-4.4,0-8,3.6-8,8v59.4c0,4.4,3.6,8,8,8h6.8c4.4,0,8-3.6,8-8v-59.4C22.7,148.8,19.1,145.3,14.7,145.3
			L14.7,145.3z"/>
	</g>
	<g>
		<path d="M14.7,242.5H8c-4.4,0-8,3.6-8,8v59.4c0,4.4,3.6,8,8,8h6.8c4.4,0,8-3.6,8-8v-59.4C22.7,246,19.1,242.5,14.7,242.5
			L14.7,242.5z"/>
	</g>
</g>
</svg>
